<?xml version="1.0"?>
<svg xmlns="http://www.w3.org/2000/svg" id="Capa_1" enable-background="new 0 0 512 512" height="512" viewBox="0 0 512 512" width="512"><g><g><path d="m130.347 417.579h118.153v-15h-114.133c-33.767-19.785-62.504-47.774-83.19-81.052l-12.738 7.92c22.339 35.937 53.521 66.067 90.173 87.134z" data-original="#000000" class="active-path" data-old_color="#000000" style="fill:#FFFFFF"/><path d="m15.117 201.979h233.383v-15h-248.5v7.5c0 42.443 10.609 84.493 30.68 121.603l13.193-7.136c-17.706-32.738-27.588-69.57-28.756-106.967z" data-original="#000000" class="active-path" data-old_color="#000000" style="fill:#FFFFFF"/><path d="m263.5 186.979v15h233.383c-2.588 82.522-47.73 158.702-119.25 200.6h-114.132v15h118.152l1.735-.998c38.382-22.06 70.582-53.866 93.12-91.979 23.22-39.266 35.492-84.261 35.492-130.123v-7.5z" data-original="#000000" class="active-path" data-old_color="#000000" style="fill:#FFFFFF"/><path d="m372.151 462.58h-232.302v-30.001h-15v45.001h262.302v-45.001h-15z" data-original="#000000" class="active-path" data-old_color="#000000" style="fill:#FFFFFF"/><path d="m282.151 432.579h15v15h-15z" data-original="#000000" class="active-path" data-old_color="#000000" style="fill:#FFFFFF"/><path d="m312.151 432.579h45v15h-45z" data-original="#000000" class="active-path" data-old_color="#000000" style="fill:#FFFFFF"/><path d="m405.566 133.415 2.065 6.37 6.563-1.334c10.878-2.209 21.713.14 30.51 6.62 9.013 6.64 14.813 16.722 15.916 27.661l14.924-1.504c-1.526-15.149-9.524-29.085-21.943-38.233-10.506-7.74-23.072-11.255-35.949-10.169-7.018-17.146-19.48-31.529-35.601-40.934l-7.559 12.955c14.768 8.616 25.803 22.313 31.074 38.568z" data-original="#000000" class="active-path" data-old_color="#000000" style="fill:#FFFFFF"/><path d="m70.824 149.003-10.305-10.9c-9.202 8.7-16.194 19.583-20.219 31.472l14.207 4.811c3.244-9.581 8.887-18.358 16.317-25.383z" data-original="#000000" class="active-path" data-old_color="#000000" style="fill:#FFFFFF"/><path d="m196.298 80.869 5.716 3.716 4.242-5.337c12.152-15.288 31.092-23.454 50.641-21.843 19.823 1.633 36.718 12.509 46.35 29.84l3.248 5.843 6.176-2.557c15.753-6.522 33.34-7.002 49.519-1.353l4.945-14.16c-17.621-6.155-36.621-6.32-54.168-.578-12.41-18.332-32.475-30.143-54.838-31.984-22.379-1.834-44.105 6.517-59.344 22.548-10.711-5.458-22.506-7.493-34.467-5.89l1.99 14.867c10.524-1.408 20.888.974 29.99 6.888z" data-original="#000000" class="active-path" data-old_color="#000000" style="fill:#FFFFFF"/><path d="m99.516 155.833c14.719 10.878 31.893 16.121 48.927 16.121 24.099 0 47.91-10.505 64.082-30.395h27.166v-15h-28.355l-124.68-92.139-4.457 6.032c-27.036 36.585-19.267 88.344 17.317 115.381zm-9.378-100.188 12.161 8.987c-10.75 19.892-7.646 44.649 8.472 61.315l10.781-10.428c-10.989-11.362-13.497-27.994-7.015-41.843l59.106 43.68c-11.336 10.261-27.972 12.748-42.058 5.577l-6.803 13.369c7.619 3.877 15.769 5.74 23.82 5.74 13.781 0 27.255-5.48 37.267-15.651l12.173 8.996c-23.04 24.881-61.719 28.995-89.612 8.383-27.893-20.614-35.312-58.796-18.292-88.125z" data-original="#000000" class="active-path" data-old_color="#000000" style="fill:#FFFFFF"/><path d="m310.206 156.98h15v15h-15z" data-original="#000000" class="active-path" data-old_color="#000000" style="fill:#FFFFFF"/><path d="m254.689 126.559h15v15h-15z" data-original="#000000" class="active-path" data-old_color="#000000" style="fill:#FFFFFF"/><path d="m341.705 113.192h15.001v15h-15.001z" data-original="#000000" class="active-path" data-old_color="#000000" style="fill:#FFFFFF"/><path d="m244.206 79.442h15v15h-15z" data-original="#000000" class="active-path" data-old_color="#000000" style="fill:#FFFFFF"/><path d="m418.206 156.98h15v15h-15z" data-original="#000000" class="active-path" data-old_color="#000000" style="fill:#FFFFFF"/><path d="m233.5 294.779h15v15h-15z" data-original="#000000" class="active-path" data-old_color="#000000" style="fill:#FFFFFF"/><path d="m263.5 294.779h15v15h-15z" data-original="#000000" class="active-path" data-old_color="#000000" style="fill:#FFFFFF"/><path d="m384.501 216.979h60v15h-60z" data-original="#000000" class="active-path" data-old_color="#000000" style="fill:#FFFFFF"/><path d="m459.501 216.979h15v15h-15z" data-original="#000000" class="active-path" data-old_color="#000000" style="fill:#FFFFFF"/><path d="m139.848 372.58h15.001v15h-15.001z" data-original="#000000" class="active-path" data-old_color="#000000" style="fill:#FFFFFF"/><path d="m169.849 372.58h15v15h-15z" data-original="#000000" class="active-path" data-old_color="#000000" style="fill:#FFFFFF"/></g></g> </svg>
