<?xml version="1.0"?>
<svg xmlns="http://www.w3.org/2000/svg" xmlns:xlink="http://www.w3.org/1999/xlink" version="1.1" id="Layer_1" x="0px" y="0px" viewBox="0 0 511.999 511.999" style="enable-background:new 0 0 511.999 511.999;" xml:space="preserve" width="512" height="512"><g><g>
	<g>
		<path d="M490.254,21.745c-28.948-28.948-76.05-28.948-104.997,0l-363.51,363.51C7.723,399.28,0,417.924,0,437.756    s7.723,38.476,21.745,52.499c14.475,14.474,33.487,21.71,52.499,21.71c19.012,0,38.025-7.237,52.498-21.71l363.51-363.51    c14.023-14.023,21.746-32.668,21.746-52.499C511.999,54.414,504.277,35.769,490.254,21.745z M479.378,115.866l-363.51,363.511    c-22.95,22.952-60.294,22.95-83.245,0c-11.117-11.117-17.24-25.899-17.24-41.622c0-12.455,3.856-24.312,10.979-34.231    c8.493-4.081,49.232-22.784,83.858-23.521c22.349-0.476,39.561-2.187,54.165-5.385l-3.29-15.025    c-13.606,2.978-29.875,4.578-51.202,5.032c-19.641,0.417-40.495,5.843-57.39,11.629l56.737-56.737l0.105,0.206    c0.464-0.234,46.779-23.48,85.46-24.304c46.788-0.996,75.486-7.97,95.958-23.323l-9.229-12.306    c-17.698,13.273-43.732,19.33-87.056,20.251c-19.641,0.417-40.495,5.843-57.39,11.629l56.74-56.74l0.105,0.206    c0.462-0.235,46.699-23.478,85.458-24.303c18.165-0.387,33.168-1.622,45.866-3.779l-2.576-15.166    c-11.946,2.029-26.214,3.195-43.618,3.566c-19.641,0.417-40.495,5.842-57.39,11.629l56.737-56.737l0.105,0.206    c0.464-0.235,46.779-23.48,85.46-24.304c46.788-0.996,75.486-7.97,95.958-23.323l-9.229-12.306    c-17.698,13.273-43.733,19.33-87.056,20.251c-19.641,0.417-40.494,5.842-57.39,11.629l89.877-89.877    c11.475-11.475,26.549-17.213,41.622-17.213c15.073,0,30.147,5.738,41.623,17.213c11.117,11.117,17.24,25.899,17.24,41.622    C496.618,89.969,490.495,104.75,479.378,115.866z" data-original="#000000" class="active-path" style="fill:#FFFFFF" data-old_color="#000000"/>
	</g>
</g><g>
	<g>
		<path d="M196.95,344.374c-4.229,3.17-8.81,5.854-14.005,8.205l6.341,14.014c6.143-2.779,11.826-6.115,16.892-9.913L196.95,344.374    z" data-original="#000000" class="active-path" style="fill:#FFFFFF" data-old_color="#000000"/>
	</g>
</g><g>
	<g>
		<path d="M366.118,175.204c-3.675,2.755-7.775,5.231-12.185,7.356l6.676,13.858c5.308-2.557,10.266-5.554,14.738-8.908    L366.118,175.204z" data-original="#000000" class="active-path" style="fill:#FFFFFF" data-old_color="#000000"/>
	</g>
</g><g>
	<g>
		<path d="M57.946,439.569l-12.434,9.057c2.411,3.31,6.58,8.1,12.752,12.123l8.401-12.884    C62.23,444.972,59.299,441.425,57.946,439.569z" data-original="#000000" class="active-path" style="fill:#FFFFFF" data-old_color="#000000"/>
	</g>
</g><g>
	<g>
		<path d="M106.151,446.002c-8.965,4.782-17.299,7.018-24.778,6.631l-0.784,15.362c0.807,0.041,1.619,0.062,2.435,0.062    c9.599,0,19.802-2.848,30.365-8.483L106.151,446.002z" data-original="#000000" class="active-path" style="fill:#FFFFFF" data-old_color="#000000"/>
	</g>
</g><g>
	<g>
		<path d="M463.541,42.281l-8.401,12.884c4.436,2.892,7.367,6.439,8.719,8.296l12.434-9.057    C473.882,51.094,469.713,46.303,463.541,42.281z" data-original="#000000" class="active-path" style="fill:#FFFFFF" data-old_color="#000000"/>
	</g>
</g><g>
	<g>
		<path d="M408.416,43.455l7.239,13.571c8.966-4.781,17.302-7.01,24.78-6.631l0.785-15.362    C430.918,34.512,419.879,37.341,408.416,43.455z" data-original="#000000" class="active-path" style="fill:#FFFFFF" data-old_color="#000000"/>
	</g>
</g></g> </svg>
