<?xml version="1.0"?>
<svg xmlns="http://www.w3.org/2000/svg" id="730d3247-3f5f-4174-b628-564444a56aa2" data-name="Icons" viewBox="0 0 512 512" width="512" height="512"><g><path d="M463,255.64c-.12-.23-.25-.46-.4-.69l0,0c-.23-.38-.47-.75-.72-1.12l-38.64-59.75c-15.45-22.78-37.71-37.61-61.31-41a47,47,0,0,0-24.36-20.34c9.23-17,23.19-25.63,42.26-26.1a7.5,7.5,0,0,0-.37-15c-19.08.48-42.83,8.08-57.2,38.31h-.63a46.77,46.77,0,0,0-46.35,41L60.09,234.15l-.5.16c-14.88,5.53-14,25.9-13.64,33.78v127.2a25.08,25.08,0,0,0,25,25.06H441.16a25.08,25.08,0,0,0,25-25.06V267.89A24.91,24.91,0,0,0,463,255.64Zm-13.63,6.48.37.57a9.94,9.94,0,0,1,1.46,5.15H380.69c.14-.5.28-.93.4-1.24,2.44-3.6,10.35-8.76,16.74-8.76h43.33A10,10,0,0,1,449.37,262.12ZM376.6,292.57a7.72,7.72,0,0,0,.39-1.66c.29-2.6.65-5.36,1-8.07h73.19v43.84l-14.46-14a32.73,32.73,0,0,0-23-9.07,32,32,0,0,0-22.68,9.89l-10.47,10.88a17.1,17.1,0,0,1-12.19,5.29h-.26A17.17,17.17,0,0,1,356,324.74l-9.61-9.43a32.36,32.36,0,0,0-45.47.28l-9.62,9.67a18,18,0,0,1-12.49,5.08,17.08,17.08,0,0,1-12.33-5.44l-9.23-9.82a32.37,32.37,0,0,0-23.52-10.17h-.18A32.37,32.37,0,0,0,210,315.36l-8.75,9.53a17.28,17.28,0,0,1-25.45,0l-9-9.76a32.4,32.4,0,0,0-23.38-10.44,33.08,33.08,0,0,0-23.64,9.9L109.8,325a17.18,17.18,0,0,1-24.09.78L61,303.19V282.84H334.62c.42,2.74.81,5.54,1.14,8.17a7.74,7.74,0,0,0,.52,1.94c3.69,8.85,11.51,14.15,20.53,14A21.7,21.7,0,0,0,376.6,292.57ZM61,267.84a10,10,0,0,1,10-10H314.58c6.44,0,14.57,5.39,16.72,8.69a9.59,9.59,0,0,1,.45,1.31Zm0,55.65L75.6,336.87a32.09,32.09,0,0,0,45-1.46l10-10.42a17.47,17.47,0,0,1,12.65-5.3,17.09,17.09,0,0,1,12.51,5.59l9,9.76a32.28,32.28,0,0,0,47.54,0l8.75-9.54a17.14,17.14,0,0,1,12.62-5.59h.11a17.08,17.08,0,0,1,12.58,5.45l9.23,9.82a32,32,0,0,0,23,10.16,31.52,31.52,0,0,0,23.33-9.5l9.62-9.67a17.34,17.34,0,0,1,24.34-.15l9.61,9.43a32.53,32.53,0,0,0,23.06,9.22,32,32,0,0,0,22.79-9.89l10.47-10.88A17.15,17.15,0,0,1,414,318.61a16.36,16.36,0,0,1,12.31,4.85l24.9,24.1v20.22l-14.46-14a32.57,32.57,0,0,0-23-9.08,32.06,32.06,0,0,0-22.68,9.9l-10.47,10.88a17.18,17.18,0,0,1-12.19,5.29A16.12,16.12,0,0,1,356,365.84l-9.61-9.43a32.36,32.36,0,0,0-45.47.28l-9.62,9.67a17.58,17.58,0,0,1-12.48,5.08A17.13,17.13,0,0,1,266.52,366l-9.23-9.82A31.86,31.86,0,0,0,233.59,346,32.33,32.33,0,0,0,210,356.46L201.26,366a17.28,17.28,0,0,1-25.45,0l-9-9.76a32.26,32.26,0,0,0-47-.54l-10,10.42a17.19,17.19,0,0,1-24.09.79L61,344.29ZM410.71,202.34l26.19,40.5H397.83c-12.05,0-24.73,8.29-29.57,16-2.15,3.41-4.19,13.3-6.06,29.39a6.68,6.68,0,0,1-5.79,3.72c-1.82.14-4.24-.62-5.91-3.93-2.06-16-4.21-25.84-6.39-29.23-4.92-7.66-17.61-15.92-29.53-15.92H83.72l192.2-56.46a46.71,46.71,0,0,0,91.87-16.75C384.23,174.27,399.52,185.84,410.71,202.34Zm-94.33-57c-.74,2.47-1.44,5-2.07,7.73a7.5,7.5,0,0,0,5.58,9,7.35,7.35,0,0,0,1.73.2,7.5,7.5,0,0,0,7.29-5.78c.83-3.51,1.76-6.82,2.79-10a31.72,31.72,0,1,1-15.32-1.21Zm124.78,260H71a10.07,10.07,0,0,1-10-10.06v-30.7L75.6,378a32.09,32.09,0,0,0,45-1.46l10-10.42a17.47,17.47,0,0,1,12.65-5.3,17.09,17.09,0,0,1,12.51,5.59l9,9.76a32.28,32.28,0,0,0,47.54,0l8.75-9.53A17.07,17.07,0,0,1,233.68,361h.1a17.09,17.09,0,0,1,12.58,5.44l9.23,9.82a32,32,0,0,0,23,10.16,32.88,32.88,0,0,0,23.33-9.5l9.62-9.67a17.33,17.33,0,0,1,24.34-.15l9.61,9.43a32.75,32.75,0,0,0,23.06,9.22,32,32,0,0,0,22.79-9.89L401.86,365A17.2,17.2,0,0,1,414,359.7a16.6,16.6,0,0,1,12.31,4.86l24.9,24.1v6.63A10.07,10.07,0,0,1,441.16,405.35Z" data-original="#000000" class="active-path" style="fill:#FFFFFF" data-old_color="#000000"/></g> </svg>
