<?xml version="1.0"?>
<svg xmlns="http://www.w3.org/2000/svg" xmlns:xlink="http://www.w3.org/1999/xlink" version="1.1" id="Capa_1" x="0px" y="0px" viewBox="0 0 444.721 444.721" style="enable-background:new 0 0 444.721 444.721;" xml:space="preserve" width="512" height="512"><g><g>
	<g>
		<path d="M219.866,124.041c-1.204-1.867-3.693-2.404-5.56-1.2c-12.636,8.191-27.11,13.112-42.12,14.32c-2.209,0-4,1.791-4,4    c0,2.209,1.791,4,4,4c16.565-1.147,32.563-6.502,46.48-15.56C220.533,128.397,221.07,125.908,219.866,124.041z" data-original="#000000" class="active-path" style="fill:#FFFFFF" data-old_color="#000000"/>
	</g>
</g><g>
	<g>
		<path d="M246.306,169.601l-12.56-37.28c-0.565-2.136-2.755-3.408-4.891-2.843s-3.408,2.755-2.843,4.891    c0.046,0.175,0.104,0.346,0.174,0.513l12.52,37.28c0.55,1.629,2.08,2.724,3.8,2.72c0.437-0.01,0.869-0.091,1.28-0.24    C245.868,173.938,246.993,171.688,246.306,169.601z" data-original="#000000" class="active-path" style="fill:#FFFFFF" data-old_color="#000000"/>
	</g>
</g><g>
	<g>
		<path d="M186.112,189.9c-0.002-0.006-0.004-0.012-0.006-0.019l-12.72-37.28c-0.565-2.136-2.755-3.408-4.891-2.843    c-2.136,0.565-3.408,2.755-2.843,4.891c0.046,0.175,0.104,0.346,0.174,0.513l12.48,37.28c0.572,1.701,2.207,2.814,4,2.72    c0.434-0.011,0.864-0.078,1.28-0.2C185.681,194.261,186.812,191.995,186.112,189.9z" data-original="#000000" class="active-path" style="fill:#FFFFFF" data-old_color="#000000"/>
	</g>
</g><g>
	<g>
		<path d="M344.161,190.382c-0.045-0.008-0.09-0.015-0.135-0.021c-15.235-2.302-29.656-8.365-41.96-17.64    c-1.679-1.436-4.204-1.239-5.64,0.44c-1.436,1.679-1.239,4.204,0.44,5.64c13.381,10.368,29.212,17.105,45.96,19.56h0.6    c1.982,0.026,3.683-1.404,4-3.36C347.8,192.824,346.338,190.756,344.161,190.382z" data-original="#000000" class="active-path" style="fill:#FFFFFF" data-old_color="#000000"/>
	</g>
</g><g>
	<g>
		<path d="M350.306,205.201c-2.032-0.86-4.377,0.089-5.24,2.12l-15.6,36.92c-0.862,2.034,0.089,4.382,2.123,5.243    c0.493,0.209,1.022,0.316,1.557,0.317c1.62,0.015,3.088-0.949,3.72-2.44l15.44-37    C353.129,208.383,352.247,206.108,350.306,205.201z" data-original="#000000" class="active-path" style="fill:#FFFFFF" data-old_color="#000000"/>
	</g>
</g><g>
	<g>
		<path d="M290.306,179.961c-2.032-0.86-4.377,0.089-5.24,2.12l-15.6,36.92c-0.86,2.032,0.089,4.377,2.12,5.24    c0.496,0.202,1.025,0.31,1.56,0.32c1.605-0.001,3.054-0.962,3.68-2.44l15.6-36.92    C293.286,183.169,292.337,180.824,290.306,179.961z" data-original="#000000" class="active-path" style="fill:#FFFFFF" data-old_color="#000000"/>
	</g>
</g><g>
	<g>
		<path d="M353.106,316.881l-12-8.44l-33.44-23.6l-32-22.6l-12-8.44c-1.798-1.284-4.296-0.867-5.58,0.931    c-0.007,0.01-0.014,0.019-0.02,0.029c-18.692,26.475-12.382,63.089,14.093,81.781c0.009,0.006,0.018,0.013,0.027,0.019l0.04,0.04    c9.853,6.996,21.636,10.756,33.72,10.76c3.395-0.054,6.78-0.389,10.12-1c15.358-2.619,29.036-11.258,38-24    c0.303-0.45,0.52-0.951,0.64-1.48C354.998,319.35,354.373,317.789,353.106,316.881z M333.066,312.761    c-4.745,5.26-10.937,9.003-17.8,10.76l-4.6-26.76L333.066,312.761z M307.346,324.641c-6.925,0.291-13.784-1.461-19.72-5.04    l15.16-21.48L307.346,324.641z M281.226,314.761c-5.629-5.353-9.375-12.383-10.68-20.04h0l26.32-2.12L281.226,314.761z     M274.706,271.241l19.04,13.6l-23.44,1.88C270.566,281.292,272.072,275.995,274.706,271.241z M273.643,327.456    c-19.117-15.876-23.916-43.265-11.337-64.695l5.44,4c-4.173,7.465-6.064,15.991-5.44,24.52c0,1.56,0.28,3.16,0.52,4.72    c1.906,10.963,7.895,20.796,16.76,27.52c0,0,0,0,0.28,0.28l0.8,0.64c18.62,13.197,44.239,9.966,59-7.44l2.32,1.64l3.08,2.2    C327.17,342.391,295.192,345.352,273.643,327.456z" data-original="#000000" class="active-path" style="fill:#FFFFFF" data-old_color="#000000"/>
	</g>
</g><g>
	<g>
		<path d="M342.266,368.281c0-2.01-1.629-3.64-3.64-3.64c-0.013,0-0.027,0-0.04,0c-2.032,0-3.68,1.648-3.68,3.68    s1.648,3.68,3.68,3.68c2.032,0,3.68-1.648,3.68-3.68C342.266,368.308,342.266,368.294,342.266,368.281z" data-original="#000000" class="active-path" style="fill:#FFFFFF" data-old_color="#000000"/>
	</g>
</g><g>
	<g>
		<path d="M182.586,236.641c-2.01-0.001-3.641,1.628-3.642,3.638s1.627,3.641,3.638,3.642c0.001,0,0.003,0,0.004,0    c2.01-0.001,3.639-1.632,3.638-3.642C186.223,238.27,184.595,236.642,182.586,236.641z" data-original="#000000" class="active-path" style="fill:#FFFFFF" data-old_color="#000000"/>
	</g>
</g><g>
	<g>
		<path d="M346.586,284.641c-2.01,0-3.64,1.63-3.64,3.64s1.63,3.64,3.64,3.64h0c2.01,0,3.64-1.63,3.64-3.64    S348.596,284.641,346.586,284.641z" data-original="#000000" class="active-path" style="fill:#FFFFFF" data-old_color="#000000"/>
	</g>
</g><g>
	<g>
		<circle cx="286.586" cy="376.281" r="3.64" data-original="#000000" class="active-path" style="fill:#FFFFFF" data-old_color="#000000"/>
	</g>
</g><g>
	<g>
		<path d="M230.586,220.641c-2.01,0-3.64,1.63-3.64,3.64s1.63,3.64,3.64,3.64h0c2.01,0,3.64-1.63,3.64-3.64    S232.596,220.641,230.586,220.641z" data-original="#000000" class="active-path" style="fill:#FFFFFF" data-old_color="#000000"/>
	</g>
</g><g>
	<g>
		<path d="M222.591,260.641c-0.001,0-0.003,0-0.004,0c-2.01,0.001-3.639,1.632-3.638,3.642c0.001,2.009,1.629,3.637,3.638,3.638    c2.01,0.001,3.641-1.628,3.642-3.638C226.23,262.273,224.601,260.642,222.591,260.641z" data-original="#000000" class="active-path" style="fill:#FFFFFF" data-old_color="#000000"/>
	</g>
</g><g>
	<g>
		<path d="M393.266,83.321c-0.747-0.828-1.805-1.306-2.92-1.32h-25.92l1.88-50.6c-0.033-0.356-0.114-0.706-0.24-1.04v-0.28    c-0.119-0.339-0.281-0.661-0.48-0.96l-0.24-0.32c-0.293-0.367-0.661-0.667-1.08-0.88c-0.42-0.193-0.864-0.328-1.32-0.4h-0.64    h-1.08h-0.28c-0.388,0.107-0.754,0.283-1.08,0.52l-55.68,38.76h-0.24c-5.43,3.818-9.751,9.007-12.52,15.04h-71.24    c-1.701-46.869-41.075-83.485-87.944-81.784C85.373,1.758,48.757,41.132,50.458,88.001c1.658,45.681,39.178,81.853,84.888,81.84    c1.115-0.014,2.173-0.492,2.92-1.32l21.04,250.44c1.299,14.52,13.422,25.674,28,25.76h151c14.578-0.086,26.701-11.24,28-25.76    l28-332.6C394.4,85.247,394.022,84.145,393.266,83.321z M327.066,104.241l11.24-20.64l18.32-5.6l-0.64,17.24L327.066,104.241z     M355.266,103.841c-3.183,16.215-18.909,26.779-35.124,23.596c-1.662-0.326-3.293-0.793-4.876-1.396l6.28-11.68L355.266,103.841z     M343.706,73.641l13.92-25.52l-0.76,21.52L343.706,73.641z M350.666,44.321l-13.8,25.28l-3.6-13.28L350.666,44.321z     M326.306,61.201l5.04,18.56l-11.4,20.88l-8.72-28.92L326.306,61.201z M301.624,80.314c0.852-1.171,1.789-2.278,2.802-3.313v0.12    l10.08,33.24l-6.32,11.64C294.863,112.302,291.925,93.638,301.624,80.314z M125.746,80.921h-48.72    c0.817-12.78,5.838-24.931,14.28-34.56l0.04,0.12L125.746,80.921z M96.946,40.841c9.601-8.387,21.682-13.402,34.4-14.28v48.72    L96.946,40.841z M125.706,88.921l-34.44,34.44c-8.391-9.61-13.394-21.71-14.24-34.44H125.706z M132.026,93.921l4,49.72    c-0.28-0.023-0.56-0.023-0.84,0c-14.134,0-27.785-5.148-38.4-14.48L132.026,93.921z M88.586,37.681v0.2    c-25.813,25.923-25.813,67.837,0,93.76c12.43,12.436,29.297,19.416,46.88,19.4c0.509-0.011,1.012-0.12,1.48-0.32l0.96,11.64    c-0.769-0.46-1.677-0.63-2.56-0.48c-42.504,0.033-76.987-34.396-77.02-76.9c-0.033-42.504,34.396-76.987,76.9-77.02    c41.344-0.032,75.327,32.608,76.96,73.92h-10.4c-0.695-16.554-7.559-32.25-19.24-44v-0.2h-0.2    C156.423,11.868,114.509,11.868,88.586,37.681z M193.786,81.961h-49.96l35.6-35.6C188.077,56.277,193.135,68.818,193.786,81.961z     M139.346,26.561c12.732,0.869,24.829,5.885,34.44,14.28l0,0.08l-34.44,34.44V26.561z M358.306,418.361    c-0.946,10.363-9.595,18.32-20,18.4h-150.96c-10.412-0.101-19.056-8.07-20-18.44l-1.04-10.52h192.8L358.306,418.361z     M359.866,399.801h-194.16l-17.2-205c0.6-1.2,3.4-5,13.88-5.72l4.44,13.28c3.886,11.297,16.141,17.362,27.48,13.6l52.52-17.6    c5.103-1.706,9.383-5.259,12-9.96c2.533,0.632,5.116,1.047,7.72,1.24l-12.6,29.88c-4.636,10.8,0.36,23.313,11.16,27.949    c0.04,0.017,0.08,0.034,0.12,0.051l53.48,22.56c2.603,1.118,5.407,1.69,8.24,1.68c8.49-0.128,16.095-5.282,19.36-13.12    l22.76-53.48c2.989-7.202,1.792-15.463-3.12-21.52c3.491-3.425,7.869-5.807,12.64-6.88L359.866,399.801z M156.786,147.281    c-2.418-7.181,1.443-14.963,8.624-17.381c0.019-0.006,0.037-0.013,0.056-0.019l52.4-17.64c7.202-2.424,15.006,1.449,17.431,8.652    c0.003,0.009,0.006,0.019,0.009,0.028l17.6,52.4c1.189,3.46,0.929,7.254-0.72,10.52c-1.631,3.286-4.513,5.779-8,6.92l-52.4,17.6    c-7.193,2.451-15.012-1.394-17.462-8.588c-0.006-0.017-0.012-0.035-0.018-0.052L156.786,147.281z M283.786,169.161    c1.364-3.246,3.971-5.811,7.24-7.12c3.246-1.378,6.914-1.378,10.16,0l53.44,22.56c6.754,2.858,9.913,10.651,7.055,17.405    c-0.005,0.012-0.01,0.023-0.015,0.035v0.32l-22.56,53.16c-2.881,6.729-10.651,9.873-17.4,7.04l-53.44-22.56    c-3.239-1.375-5.799-3.979-7.12-7.24c-1.36-3.25-1.36-6.91,0-10.16L283.786,169.161z M379.266,168.641    c-7.407,0.902-14.274,4.336-19.44,9.72c-0.72-0.4-1.36-0.8-2.08-1.12l-53.44-22.52c-10.803-4.628-23.312,0.377-27.941,11.18    c-0.02,0.047-0.04,0.093-0.059,0.14l-6.6,15.6c-2.856,0.085-5.709-0.225-8.48-0.92c0.519-3.339,0.231-6.755-0.84-9.96l-17.48-52.4    c-3.853-11.392-16.192-17.526-27.6-13.72l-52.4,17.72c-5.483,1.801-10.019,5.718-12.6,10.88c-2.597,5.156-3.001,11.142-1.12,16.6    l10.56,31.48c-4.2,0.335-8.285,1.533-12,3.52l-8-94.76h149c-3.467,16.413,4.239,33.157,18.96,41.2    c11.546,6.326,25.554,6.174,36.96-0.4c11.459-6.487,18.706-18.479,19.12-31.64l0.32-9.2l21.76,0.04L379.266,168.641z" data-original="#000000" class="active-path" style="fill:#FFFFFF" data-old_color="#000000"/>
	</g>
</g><g>
	<g>
		<path d="M247.549,345.148c-0.744-6.124-2.894-11.992-6.283-17.147l-39.64-60c-0.201-0.347-0.473-0.647-0.8-0.88h-0.2    c-0.312-0.212-0.647-0.387-1-0.52h-0.36c-0.477-0.08-0.963-0.08-1.44,0c-0.479,0.049-0.943,0.199-1.36,0.44l-0.32,0.2    c-0.315,0.196-0.598,0.439-0.84,0.72c-0.24,0.315-0.429,0.666-0.56,1.04l-24.44,67.52c0.013,0.093,0.013,0.187,0,0.28    c-4.645,12.949-2.237,27.381,6.36,38.12c7.53,9.505,18.993,15.045,31.12,15.04c1.471-0.014,2.94-0.107,4.4-0.28h0.48    C234.596,387.016,250.214,367.078,247.549,345.148z M196.346,287.481l3.8,31.92l-11.8-9.72L196.346,287.481z M185.506,317.681    l16,13.2l3.08,25.64l-25.88-20L185.506,317.681z M182.906,369.921c-5.658-7.075-8.017-16.233-6.48-25.16l29.56,22.92l1.72,14.28    C198.035,381.944,188.902,377.509,182.906,369.921z M204.146,286.601l13.2,20l-9.2,12L204.146,286.601z M212.426,355.241    l-2.92-25.28l12.8-16.4l10.12,15.56L212.426,355.241z M236.906,363.441l-0.04-0.04c-4.068,8.758-11.873,15.211-21.24,17.56    l-1.72-14.36l22.88-30.16C240.807,344.983,240.851,354.864,236.906,363.441z" data-original="#000000" class="active-path" style="fill:#FFFFFF" data-old_color="#000000"/>
	</g>
</g></g> </svg>
