<?xml version="1.0"?>
<svg xmlns="http://www.w3.org/2000/svg" height="512" viewBox="0 0 512 512" width="512" class=""><g><path d="m392.5 147.011719c-11.082031-8.707031-27.183594-6.777344-35.886719 4.304687-4.21875 5.367188-6.09375 12.058594-5.28125 18.835938s4.214844 12.835937 9.582031 17.050781c4.550782 3.574219 10.046876 5.46875 15.742188 5.46875 1.027344 0 2.0625-.0625 3.097656-.1875 6.777344-.8125 12.832032-4.214844 17.050782-9.585937 4.21875-5.367188 6.09375-12.054688 5.28125-18.835938-.8125-6.777344-4.21875-12.832031-9.585938-17.050781zm-7.488281 26.621093c-1.742188 2.21875-4.246094 3.625-7.046875 3.960938-2.800782.332031-5.5625-.441406-7.78125-2.183594-2.21875-1.742187-3.625-4.242187-3.960938-7.042968-.332031-2.800782.441406-5.5625 2.183594-7.78125 2.078125-2.648438 5.183594-4.03125 8.3125-4.03125 2.285156 0 4.582031.734374 6.511719 2.25 2.21875 1.746093 3.625 4.246093 3.960937 7.046874.335938 2.800782-.4375 5.5625-2.179687 7.78125zm0 0" data-original="#000000" class="active-path" style="fill:#FFFFFF" data-old_color="#000000"/><path d="m437.019531 74.980469c-48.351562-48.351563-112.640625-74.980469-181.019531-74.980469s-132.667969 26.628906-181.019531 74.980469c-48.351563 48.351562-74.980469 112.640625-74.980469 181.019531s26.628906 132.667969 74.980469 181.019531c48.351562 48.351563 112.640625 74.980469 181.019531 74.980469s132.667969-26.628906 181.019531-74.980469c48.351563-48.351562 74.980469-112.640625 74.980469-181.019531s-26.628906-132.667969-74.980469-181.019531zm59.839844 173.128906h-23.167969c-1.953125-55.226563-24.371094-106.871094-63.652344-146.148437-10.378906-10.382813-21.625-19.582032-33.570312-27.542969l12.429688-19.542969c13.351562 8.863281 25.921874 19.121094 37.515624 30.710938 43.652344 43.65625 68.480469 101.109374 70.445313 162.523437zm-394.160156 0h-49.378907c2.496094-64.890625 35.605469-122.066406 85.277344-157.441406l100.113282 157.441406h-106.011719c-4.144531 0-7.5 3.359375-7.5 7.5 0 4.144531 3.355469 7.5 7.5 7.5h106.011719l-100.449219 157.976563c-49.683594-35.535157-82.714844-92.910157-84.96875-157.976563h49.40625c4.140625 0 7.5-3.355469 7.5-7.5 0-4.140625-3.359375-7.5-7.5-7.5zm149.667969 21.480469 103.566406 162.875c-29.515625 16.78125-63.621094 26.378906-99.933594 26.378906-38.5 0-74.527344-10.78125-105.226562-29.484375zm13.65625-6.480469h192.683593c-2.328125 67.242187-37.53125 126.269531-90.011719 161.46875zm0-15 71.757812-112.847656c2.222656-3.496094 1.191406-8.128907-2.304688-10.355469-3.496093-2.222656-8.128906-1.1875-10.355468 2.308594l-72.753906 114.417968-101.234376-159.207031c30.617188-18.570312 66.515626-29.273437 104.867188-29.273437 36.160156 0 70.136719 9.523437 99.570312 26.175781l-15.707031 24.703125c-2.222656 3.496094-1.191406 8.132812 2.304688 10.355469 1.246093.792969 2.640625 1.171875 4.015625 1.171875 2.480468 0 4.910156-1.230469 6.335937-3.476563l15.828125-24.890625c52.464844 35.035156 87.75 93.855469 90.332032 160.917969zm110.117187-201.128906-12.4375 19.558593c-32.457031-18.519531-69.320313-28.386718-107.703125-28.386718-40.480469 0-79.269531 10.980468-112.984375 31.507812l-12.429687-19.546875c37.398437-22.875 80.460937-35.113281 125.414062-35.113281 42.851562 0 83.992188 11.121094 120.140625 31.980469zm-290.554687 38.605469c10.117187-10.113282 20.976562-19.210938 32.449218-27.257813l12.4375 19.5625c-10.070312 7.132813-19.609375 15.164063-28.511718 24.070313-39.28125 39.277343-61.699219 90.917968-63.652344 146.148437h-21.542969c-.5625 0-1.105469.066406-1.628906.183594 1.917969-61.484375 26.753906-119.007813 70.449219-162.707031zm-70.480469 177.335937c.535156.117187 1.089843.1875 1.660156.1875h21.515625c1.769531 55.523437 24.214844 107.464844 63.679688 146.929687 8.800781 8.800782 18.226562 16.75 28.171874 23.820313l-12.445312 19.574219c-11.34375-7.988282-22.085938-17.007813-32.101562-27.023438-43.882813-43.882812-68.75-101.710937-70.480469-163.488281zm115.125 198.746094 12.429687-19.546875c33.796875 20.667968 72.71875 31.726562 113.339844 31.726562 38.523438 0 75.519531-9.941406 108.066406-28.597656l11.289063 17.757812c.402343.632813.890625 1.175782 1.425781 1.640626-36.304688 21.09375-77.675781 32.351562-120.78125 32.351562-45.09375 0-88.289062-12.316406-125.769531-35.332031zm296.183593-35.253907c-11.578124 11.578126-24.132812 21.824219-37.472656 30.683594-.191406-.738281-.496094-1.457031-.925781-2.136718l-11.195313-17.605469c11.816407-7.910157 22.941407-17.035157 33.21875-27.316407 39.46875-39.464843 61.910157-91.402343 63.679688-146.925781h23.167969c-1.777344 61.707031-26.636719 119.460938-70.472657 163.300781zm0 0" data-original="#000000" class="active-path" style="fill:#FFFFFF" data-old_color="#000000"/><path d="m146.316406 196.472656c0-14.089844-11.464844-25.558594-25.558594-25.558594s-25.558593 11.46875-25.558593 25.558594c0 14.09375 11.464843 25.558594 25.558593 25.558594s25.558594-11.464844 25.558594-25.558594zm-36.117187 0c0-5.820312 4.734375-10.558594 10.558593-10.558594 5.820313 0 10.558594 4.738282 10.558594 10.558594 0 5.824219-4.738281 10.558594-10.558594 10.558594-5.824218 0-10.558593-4.734375-10.558593-10.558594zm0 0" data-original="#000000" class="active-path" style="fill:#FFFFFF" data-old_color="#000000"/><path d="m120.757812 149.355469h12.507813c4.140625 0 7.5-3.359375 7.5-7.5 0-4.144531-3.359375-7.5-7.5-7.5h-12.507813c-4.144531 0-7.5 3.355469-7.5 7.5 0 4.140625 3.355469 7.5 7.5 7.5zm0 0" data-original="#000000" class="active-path" style="fill:#FFFFFF" data-old_color="#000000"/><path d="m174.589844 231.558594c1.566406 0 3.152344-.492188 4.503906-1.507813l11.035156-8.300781c3.308594-2.492188 3.972656-7.191406 1.484375-10.503906-2.492187-3.308594-7.191406-3.976563-10.503906-1.484375l-11.035156 8.300781c-3.308594 2.492188-3.972657 7.191406-1.484375 10.503906 1.472656 1.957032 3.722656 2.992188 6 2.992188zm0 0" data-original="#000000" class="active-path" style="fill:#FFFFFF" data-old_color="#000000"/><path d="m263.515625 96.882812c-6.160156-12.671874-21.484375-17.972656-34.160156-11.816406-6.140625 2.984375-10.75 8.183594-12.984375 14.632813-2.230469 6.453125-1.816406 13.390625 1.167968 19.527343 2.984376 6.140626 8.183594 10.753907 14.632813 12.984376 2.738281.945312 5.5625 1.417968 8.375 1.417968 3.820313 0 7.617187-.867187 11.152344-2.585937 12.675781-6.160157 17.976562-21.484375 11.816406-34.160157zm-18.371094 20.671876c-2.539062 1.230468-5.402343 1.402343-8.070312.480468-2.664063-.921875-4.8125-2.828125-6.042969-5.363281-1.230469-2.539063-1.402344-5.402344-.480469-8.066406.921875-2.667969 2.824219-4.816407 5.363281-6.046875 1.480469-.71875 3.050782-1.0625 4.597657-1.0625 3.917969 0 7.6875 2.191406 9.515625 5.945312 2.542968 5.234375.351562 11.566406-4.882813 14.113282zm0 0" data-original="#000000" class="active-path" style="fill:#FFFFFF" data-old_color="#000000"/><path d="m304.914062 84.855469c-1.8125-3.726563-6.300781-5.28125-10.023437-3.46875-3.726563 1.8125-5.28125 6.296875-3.46875 10.023437l5.46875 11.25c1.296875 2.671875 3.96875 4.222656 6.75 4.222656 1.101563 0 2.21875-.242187 3.273437-.753906 3.726563-1.8125 5.277344-6.300781 3.46875-10.023437zm0 0" data-original="#000000" class="active-path" style="fill:#FFFFFF" data-old_color="#000000"/><path d="m264.023438 171.019531-12.289063-6.296875c-3.6875-1.890625-8.207031-.433594-10.09375 3.253906-1.890625 3.6875-.433594 8.207032 3.253906 10.09375l12.289063 6.296876c1.09375.5625 2.261718.828124 3.414062.828124 2.726563 0 5.355469-1.492187 6.679688-4.082031 1.890625-3.6875.433594-8.207031-3.253906-10.09375zm0 0" data-original="#000000" class="active-path" style="fill:#FFFFFF" data-old_color="#000000"/><path d="m411.671875 239.945312c1.375 1.082032 3.007813 1.605469 4.628906 1.605469 2.222657 0 4.421875-.984375 5.902344-2.867187l7.726563-9.835938c2.5625-3.257812 1.996093-7.972656-1.261719-10.53125-3.257813-2.558594-7.972657-1.996094-10.53125 1.261719l-7.730469 9.835937c-2.558594 3.257813-1.992188 7.972657 1.265625 10.53125zm0 0" data-original="#000000" class="active-path" style="fill:#FFFFFF" data-old_color="#000000"/><path d="m416.15625 316.519531c1.300781 2.667969 3.972656 4.222657 6.753906 4.222657 1.097656 0 2.214844-.246094 3.273438-.757813 3.722656-1.808594 5.277344-6.296875 3.464844-10.023437l-5.46875-11.25c-1.808594-3.726563-6.296876-5.277344-10.023438-3.46875-3.722656 1.8125-5.277344 6.300781-3.464844 10.027343zm0 0" data-original="#000000" class="active-path" style="fill:#FFFFFF" data-old_color="#000000"/><path d="m328.324219 197.484375c-4.164063-.0625-7.570313 3.199219-7.660157 7.339844l-.289062 13.808593c-.085938 4.140626 3.199219 7.566407 7.339844 7.65625h.160156c4.070312 0 7.410156-3.253906 7.496094-7.34375l.292968-13.804687c.085938-4.140625-3.199218-7.566406-7.339843-7.65625zm0 0" data-original="#000000" class="active-path" style="fill:#FFFFFF" data-old_color="#000000"/><path d="m383.625 310.644531c2.984375-13.773437-5.789062-27.40625-19.5625-30.394531-13.769531-2.988281-27.40625 5.785156-30.394531 19.558594-1.445313 6.671875-.210938 13.507812 3.484375 19.25 3.695312 5.742187 9.402344 9.703125 16.074218 11.148437 1.820313.394531 3.632813.582031 5.421876.582031 11.765624 0 22.382812-8.1875 24.976562-20.144531zm-14.660156-3.179687c-.597656 2.757812-2.234375 5.117187-4.605469 6.640625-2.371094 1.527343-5.195313 2.039062-7.953125 1.441406s-5.113281-2.234375-6.640625-4.605469-2.039063-5.195312-1.441406-7.953125c.601562-2.753906 2.234375-5.113281 4.605469-6.640625 1.726562-1.109375 3.691406-1.683594 5.695312-1.683594.75 0 1.507812.082032 2.257812.246094 5.691407 1.234375 9.316407 6.867188 8.082032 12.554688zm0 0" data-original="#000000" class="active-path" style="fill:#FFFFFF" data-old_color="#000000"/><path d="m384.53125 360.289062-13.6875-1.800781c-4.109375-.542969-7.875 2.347657-8.414062 6.453125-.542969 4.109375 2.347656 7.875 6.453124 8.417969l13.691407 1.800781c.332031.042969.664062.066406.988281.066406 3.707031 0 6.929688-2.746093 7.425781-6.523437.542969-4.105469-2.347656-7.875-6.457031-8.414063zm0 0" data-original="#000000" class="active-path" style="fill:#FFFFFF" data-old_color="#000000"/><path d="m264.636719 420.410156c6.632812-1.617187 12.242187-5.71875 15.789062-11.550781 3.550781-5.832031 4.613281-12.695313 3-19.328125-1.617187-6.632812-5.714843-12.242188-11.546875-15.792969-5.835937-3.546875-12.699218-4.613281-19.332031-2.996093-13.695313 3.332031-22.121094 17.183593-18.789063 30.878906 1.613282 6.632812 5.714844 12.238281 11.546876 15.789062 4.054687 2.46875 8.609374 3.734375 13.238281 3.734375 2.027343 0 4.070312-.242187 6.09375-.734375zm-16.304688-22.335937c-1.378906-5.660157 2.105469-11.382813 7.761719-12.757813 2.742188-.667968 5.574219-.226562 7.984375 1.238282 2.410156 1.464843 4.105469 3.78125 4.773437 6.523437.664063 2.738281.226563 5.578125-1.242187 7.984375-1.464844 2.410156-3.78125 4.105469-6.519531 4.773438-2.742188.667968-5.578125.226562-7.988282-1.238282-2.410156-1.46875-4.105468-3.785156-4.769531-6.523437zm0 0" data-original="#000000" class="active-path" style="fill:#FFFFFF" data-old_color="#000000"/><path d="m209.109375 401.183594c-.976563-4.023438-5.035156-6.492188-9.058594-5.511719-4.023437.976563-6.492187 5.035156-5.515625 9.058594l2.960938 12.15625c.832031 3.425781 3.902344 5.726562 7.28125 5.726562.585937 0 1.183594-.070312 1.777344-.214843 4.023437-.980469 6.496093-5.035157 5.515624-9.0625zm0 0" data-original="#000000" class="active-path" style="fill:#FFFFFF" data-old_color="#000000"/><path d="m241.367188 324.710938 10.675781 8.757812c1.394531 1.144531 3.078125 1.703125 4.753906 1.703125 2.167969 0 4.320313-.9375 5.800781-2.746094 2.628906-3.199219 2.164063-7.925781-1.039062-10.554687l-10.675782-8.757813c-3.203124-2.628906-7.929687-2.164062-10.554687 1.039063-2.628906 3.203125-2.164063 7.929687 1.039063 10.558594zm0 0" data-original="#000000" class="active-path" style="fill:#FFFFFF" data-old_color="#000000"/><path d="m107.316406 319.65625c4.355469 5.257812 10.492188 8.507812 17.289063 9.152344.820312.078125 1.636719.117187 2.453125.117187 5.925781 0 11.621094-2.042969 16.246094-5.871093 10.855468-8.980469 12.382812-25.125 3.398437-35.984376-8.984375-10.859374-25.128906-12.382812-35.984375-3.402343-5.261719 4.351562-8.511719 10.492187-9.152344 17.289062-.644531 6.796875 1.398438 13.4375 5.75 18.699219zm9.183594-17.289062c.265625-2.804688 1.605469-5.34375 3.78125-7.140626 1.964844-1.625 4.347656-2.417968 6.722656-2.417968 3.039063 0 6.058594 1.304687 8.144532 3.824218 3.710937 4.484376 3.078124 11.152344-1.40625 14.867188-2.175782 1.796875-4.917969 2.636719-7.722657 2.375-2.808593-.265625-5.34375-1.609375-7.144531-3.78125-1.796875-2.171875-2.640625-4.917969-2.375-7.726562zm0 0" data-original="#000000" class="active-path" style="fill:#FFFFFF" data-old_color="#000000"/><path d="m142.164062 346.097656c-4.027343-.960937-8.074218 1.523438-9.035156 5.550782l-3.214844 13.429687c-.960937 4.027344 1.523438 8.074219 5.550782 9.039063.585937.140624 1.175781.207031 1.75.207031 3.390625 0 6.464844-2.3125 7.289062-5.757813l3.210938-13.429687c.964844-4.027344-1.519532-8.074219-5.550782-9.039063zm0 0" data-original="#000000" class="active-path" style="fill:#FFFFFF" data-old_color="#000000"/></g> </svg>
