<?xml version="1.0"?>
<svg xmlns="http://www.w3.org/2000/svg" id="Capa_1" enable-background="new 0 0 512 512" height="512" viewBox="0 0 512 512" width="512" class=""><g><g><path d="m510.599 358.975c-1.411-1.974-3.687-3.145-6.114-3.145h-35.152v-27.81c0-4.15-3.365-7.515-7.515-7.515h-6.884v-16.403h6.884c4.15 0 7.515-3.365 7.515-7.515v-30.761c0-4.15-3.365-7.515-7.515-7.515h-22.721c7.991-8.509 12.9-19.943 12.9-32.509 0-23.656-17.37-43.325-40.024-46.939v-82.755c0-4.15-3.365-7.515-7.515-7.515s-7.515 3.365-7.515 7.515v82.749c-10.073 1.586-19.319 6.349-26.576 13.815-2.893 2.976-2.825 7.734.151 10.626 2.976 2.893 7.734 2.825 10.626-.151 6.078-6.252 14.193-9.732 22.891-9.842.141.008.28.021.423.021.142 0 .28-.013.419-.021 17.732.226 32.09 14.713 32.09 32.498 0 17.925-14.583 32.509-32.509 32.509-17.925 0-32.509-14.583-32.509-32.509 0-4.15-3.365-7.515-7.515-7.515s-7.515 3.364-7.515 7.515c0 12.566 4.909 24 12.9 32.509h-22.721c-4.15 0-7.515 3.365-7.515 7.515v30.761c0 4.15 3.365 7.515 7.515 7.515h6.884v16.403h-6.884c-4.15 0-7.515 3.365-7.515 7.515v27.81h-18.718v-27.81c0-4.15-3.365-7.515-7.515-7.515h-6.884v-16.403h6.884c4.15 0 7.515-3.365 7.515-7.515v-30.761c0-4.15-3.365-7.515-7.515-7.515h-22.72c7.991-8.509 12.9-19.943 12.9-32.509 0-23.656-17.37-43.325-40.024-46.939v-82.756c0-4.15-3.365-7.515-7.515-7.515s-7.515 3.365-7.515 7.515v82.756c-22.654 3.614-40.024 23.283-40.024 46.939 0 12.566 4.91 24 12.9 32.509h-22.721c-4.15 0-7.515 3.365-7.515 7.515v30.761c0 4.15 3.365 7.515 7.515 7.515h6.884v16.403h-6.884c-4.15 0-7.515 3.365-7.515 7.515v27.81h-18.711v-27.81c0-4.15-3.365-7.515-7.515-7.515h-6.884v-16.403h6.884c4.15 0 7.515-3.365 7.515-7.515v-30.761c0-4.15-3.365-7.515-7.515-7.515h-22.72c7.99-8.509 12.9-19.943 12.9-32.509 0-23.656-17.369-43.325-40.023-46.939v-82.756c0-4.15-3.365-7.515-7.515-7.515s-7.515 3.365-7.515 7.515v82.756c-22.654 3.614-40.024 23.283-40.024 46.939 0 12.566 4.909 24 12.9 32.509h-22.721c-4.15 0-7.515 3.365-7.515 7.515v30.761c0 4.15 3.365 7.515 7.515 7.515h6.884v16.403h-6.884c-4.15 0-7.515 3.365-7.515 7.515v27.81h-35.152c-5.064 0-8.753 5.147-7.11 9.947 11.791 34.47 44.189 57.629 80.619 57.629h236.026c4.15 0 7.515-3.365 7.515-7.515s-3.365-7.515-7.515-7.515h-236.025c-26.347 0-50.135-14.709-62.117-37.517h474.195c-11.982 22.808-35.77 37.516-62.117 37.516h-83.877c-4.15 0-7.515 3.365-7.515 7.515s3.365 7.515 7.515 7.515h83.877c36.43 0 68.828-23.159 80.619-57.629.786-2.295.414-4.828-.996-6.802zm-155.985-85.633h99.69v15.732h-99.69zm14.399 30.761h70.892v16.403h-70.892zm-14.399 31.433h99.69v20.295h-99.69zm-131.131-109.733c0-17.785 14.357-32.272 32.09-32.498.14.008.278.021.419.021.142 0 .28-.013.419-.021 17.732.226 32.09 14.713 32.09 32.498 0 17.925-14.583 32.509-32.509 32.509s-32.509-14.583-32.509-32.509zm-17.336 47.539h99.69v15.732h-99.69zm14.399 30.761h70.892v16.403h-70.892zm-14.399 31.433h99.69v20.295h-99.69zm-131.124-109.733c0-17.785 14.357-32.272 32.09-32.498.14.008.278.021.419.021s.28-.013.419-.021c17.732.226 32.089 14.713 32.089 32.498 0 17.925-14.583 32.509-32.508 32.509-17.926 0-32.509-14.583-32.509-32.509zm-2.937 78.3h20.416c4.15 0 7.515-3.365 7.515-7.515s-3.365-7.515-7.515-7.515h-34.815v-15.732h99.69v15.732h-34.815c-4.15 0-7.515 3.365-7.515 7.515s3.365 7.515 7.515 7.515h20.416v16.403h-70.892zm-14.399 31.433h99.69v20.295h-99.69z" data-original="#000000" class="active-path" style="fill:#FFFFFF" data-old_color="#000000"/></g></g> </svg>
